<svg width="35" height="30" viewBox="0 0 35 30" fill="none" xmlns="http://www.w3.org/2000/svg">
<path d="M30 16.5C30.8284 16.5 31.5 15.8284 31.5 15C31.5 14.1716 30.8284 13.5 30 13.5L30 16.5ZM3.93934 13.9393C3.35355 14.5251 3.35355 15.4749 3.93934 16.0607L13.4853 25.6066C14.0711 26.1924 15.0208 26.1924 15.6066 25.6066C16.1924 25.0208 16.1924 24.0711 15.6066 23.4853L7.12132 15L15.6066 6.51472C16.1924 5.92893 16.1924 4.97919 15.6066 4.3934C15.0208 3.80761 14.0711 3.80761 13.4853 4.3934L3.93934 13.9393ZM30 13.5L5 13.5L5 16.5L30 16.5L30 13.5Z" fill="#370041"/>
</svg>
